PathFileType	4	(X/Y/Z)	C:\Users\Ali Mert BOSTAN\Desktop\Yazýlým\Hacettepe-Bil-D-nem-Proje\basket_Sports2D\basket_Sports2D_px_person00.trc
DataRate	CameraRate	NumFrames	NumMarkers	Units	OrigDataRate	OrigDataStartFrame	OrigNumFrames
120.0	120.0	4	22	m	120.0	199	266
Frame#	Time	Hip			RHip			RKnee			RAnkle			RBigToe			RSmallToe			RHeel			LHip			LKnee			LAnkle			LBigToe			LSmallToe			LHeel			Neck			Head			Nose			RShoulder			RElbow			RWrist			LShoulder			LElbow			LWrist		
		X1	Y1	Z1	X2	Y2	Z2	X3	Y3	Z3	X4	Y4	Z4	X5	Y5	Z5	X6	Y6	Z6	X7	Y7	Z7	X8	Y8	Z8	X9	Y9	Z9	X10	Y10	Z10	X11	Y11	Z11	X12	Y12	Z12	X13	Y13	Z13	X14	Y14	Z14	X15	Y15	Z15	X16	Y16	Z16	X17	Y17	Z17	X18	Y18	Z18	X19	Y19	Z19	X20	Y20	Z20	X21	Y21	Z21	X22	Y22	Z22
199	1.6583333333333332	397.49933350089725	600.669710989008	0.0	408.45316325825826	598.3197146732783	0.0	417.56570068552026	795.091200765586	0.0	379.22034744847326	990.6408387600404	0.0	454.3921996949339	1013.0560398213411	0.0	440.875029185445	1023.6296766265352	0.0	351.74057174390316	1009.44807517372	0.0	383.0246180811571	594.6904123189273	0.0	382.4344045935342	787.7645613336582	0.0	358.3490856853089	978.6360577075511	0.0	442.49354770853074	1001.4860886926318	0.0	431.51569889186817	995.7106686907435	0.0	333.5970403418304	997.0883895371827	0.0	392.86903074645585	341.7978541827637	0.0	392.42295648721995	225.08134133198942	0.0	439.53485454330655	284.58644493054015	0.0	418.57536263966404	357.0984690423275	0.0	547.9972262395041	314.00518518387634	0.0	488.0251308840844	231.37566132367118	0.0	367.1358952324513	366.14491593671517	0.0	398.70753341633014	318.5673903389998	0.0	438.40043934624504	232.71567257661383	0.0
200	1.6666666666666667	397.757595950594	600.7846175236119	0.0	408.8395607515189	598.410596273633	0.0	417.7346095649523	795.1006169063592	0.0	379.08890872615797	990.737900628166	0.0	454.3389250523254	1013.1371367358199	0.0	440.8998024373222	1023.7929269355723	0.0	351.6262093641568	1009.5491407820759	0.0	383.32948503184815	594.6944744161391	0.0	382.68552907060166	787.8561185045746	0.0	358.5770582534057	978.7949845211831	0.0	442.57057808357507	1001.7151057979328	0.0	431.5230195593635	995.9180428026868	0.0	333.58228479832513	997.2654235300955	0.0	392.96138637091497	341.76847392963464	0.0	392.3488256470992	224.93457246887533	0.0	439.48285119711346	284.15346775197213	0.0	418.8368307781717	356.8615598985082	0.0	548.1016837958277	313.33918416596856	0.0	487.8579198826756	230.65476584155388	0.0	367.23143607949527	366.10931185036503	0.0	398.8891497630176	317.8072792544529	0.0	438.3141124975509	232.01706847896423	0.0
201	1.675	398.00857388995513	600.8938462862011	0.0	409.2484376432439	598.4903338149079	0.0	417.90965932966816	795.095316997194	0.0	378.97980727826746	990.8513607613364	0.0	454.30639684874063	1013.2131853615917	0.0	440.9926776305	1023.9704476700015	0.0	351.5585214928034	1009.6808412048174	0.0	383.6165077851396	594.7172394304423	0.0	382.8932492979492	787.931557602548	0.0	358.79270099164376	978.979251605226	0.0	442.6960801708016	1001.9058024888211	0.0	431.5221139446748	996.106363397907	0.0	333.56748973896316	997.4785731076962	0.0	393.07935298291363	341.71780745107753	0.0	392.27206165671805	224.8075389432064	0.0	439.4453574425802	283.72946858980436	0.0	419.14120013273924	356.61783686076836	0.0	548.2026953318074	312.67791025598837	0.0	487.7128233808446	229.94625532919997	0.0	367.33957431407595	366.05153204282516	0.0	399.10210718183424	317.0393739058971	0.0	438.21441666171063	231.32460261964061	0.0
202	1.6833333333333333	398.24945500506504	600.9779450369906	0.0	409.66861046371406	598.543681152035	0.0	418.08299118766337	795.0643412926025	0.0	378.90203645468824	990.9684646124583	0.0	454.3020582637686	1013.2860069547136	0.0	441.15120648893867	1024.1562226297729	0.0	351.54060609699343	1009.8347008960673	0.0	383.8735972510482	594.744781825676	0.0	383.0521779896581	787.9709890678167	0.0	358.9769747753396	979.169452323594	0.0	442.84924518628765	1002.0454641662736	0.0	431.49659357416226	996.2568174865037	0.0	333.5507662290001	997.7015098280013	0.0	393.22333108543097	341.63853071054984	0.0	392.1777509498209	224.69616415122616	0.0	439.4054848827219	283.3078254975954	0.0	419.4872865135951	356.36907355762236	0.0	548.3024923938239	312.0198904032992	0.0	487.59327719971986	229.24744122804913	0.0	367.4573653007305	365.9759681068718	0.0	399.3446262180953	316.2806661975248	0.0	438.1040330642399	230.65182002874514	0.0
